# xmcd
#
# Track frame offsets:
#	150
#	18066
#	35517
#	49356
#	69116
#	89779
#	104252
#	123089
#	138161
#	152537
#	166308
#	181306
#	198828
#	218048
#	235192
#
# Disc length: 3351 seconds
#
# Revision: 1
# Processed by: cddbd v1.5.1PL2 Copyright (c) Steve Scherf et al.
# Submitted via: audiograbber 1.83.01
#
DISCID=bd0d150f
DTITLE=Various Artist - CB6202
DYEAR=1900
DGENRE=Karaoke
TTITLE0=Jack Ingram - Mustang Burn
TTITLE1=Faith Hill - Bringing Out The Elvis
TTITLE2=Chuck Wagon Gang And The Wheels - Beauty's In The Eye Of The Beerholder
TTITLE3=Billy Gilman - One Voice
TTITLE4=Big House - Buck These Haggard Blues
TTITLE5=Jessica Andrews - I Do Now
TTITLE6=Charlie Daniels Band, The - Road Dogs
TTITLE7=Dixie Chicks - Hole In My Head
TTITLE8=Chris Ledoux - County Fair
TTITLE9=Juice Newton - They Never Made It To Memphis
TTITLE10=Trini Triggs - Wreckin' Crew, The
TTITLE11=Reba McEntire - We're So Good Together
TTITLE12=Hank Williams Jr. - All Jokes Aside
TTITLE13=Danni Leigh - I Don't Feel That Way Anymore
TTITLE14=Asleep At The Wheel - Cherokee Maiden
EXTD=
EXTT0=
EXTT1=
EXTT2=
EXTT3=
EXTT4=
EXTT5=
EXTT6=
EXTT7=
EXTT8=
EXTT9=
EXTT10=
EXTT11=
EXTT12=
EXTT13=
EXTT14=
PLAYORDER=
